<svg xmlns="http://www.w3.org/2000/svg" width="24" height="24" viewBox="0 0 24 24">
    <path d="M12 0C5.373 0 0 5.373 0 12c0 5.304 3.438 9.8 8.207 11.387.6.11.793-.262.793-.58v-2.165c-3.338.724-4.043-1.416-4.043-1.416-.546-1.386-1.333-1.757-1.333-1.757-1.09-.746.083-.73.083-.73 1.205.084 1.839 1.238 1.839 1.238 1.07 1.835 2.809 1.305 3.493.997.108-.774.42-1.305.763-1.605-2.665-.307-5.467-1.334-5.467-5.933 0-1.31.469-2.38 1.237-3.22-.124-.304-.536-1.524.117-3.176 0 0 1.01-.323 3.31 1.23a11.49 11.49 0 013.013-.404 11.49 11.49 0 013.013.404c2.298-1.553 3.31-1.23 3.31-1.23.653 1.652.241 2.872.117 3.176.77.84 1.237 1.91 1.237 3.22 0 4.61-2.807 5.623-5.481 5.92.432.372.815 1.103.815 2.222v3.293c0 .32.192.695.801.577C20.565 21.795 24 17.304 24 12 24 5.373 18.627 0 12 0z"/>
</svg>
